<svg width="16" height="16" viewBox="0 0 16 16" fill="none" xmlns="http://www.w3.org/2000/svg">
<g id="vuesax/linear/clipboard-tick">
<g id="vuesax/linear/clipboard-tick_2">
<g id="clipboard-tick">
<path id="Vector (Stroke)" fill-rule="evenodd" clip-rule="evenodd" d="M10.2268 7.78121C10.422 7.97647 10.422 8.29306 10.2268 8.48832L7.5601 11.155C7.46633 11.2488 7.33915 11.3014 7.20654 11.3014C7.07393 11.3014 6.94676 11.2488 6.85299 11.155L5.85299 10.155C5.65773 9.95972 5.65773 9.64314 5.85299 9.44788C6.04825 9.25262 6.36483 9.25262 6.5601 9.44788L7.20654 10.0943L9.51966 7.78121C9.71492 7.58595 10.0315 7.58595 10.2268 7.78121Z" fill="#808080"/>
<path id="Vector (Stroke)_2" fill-rule="evenodd" clip-rule="evenodd" d="M6.61938 0.834086C6.63575 0.834132 6.65159 0.834177 6.66683 0.834177H9.3335C9.34874 0.834177 9.36457 0.834132 9.38095 0.834086C9.67627 0.833247 10.1481 0.831906 10.5275 1.08482C10.9837 1.38896 11.1668 1.93481 11.1668 2.66751C11.1668 2.68276 11.1669 2.69859 11.1669 2.71497C11.1678 3.01029 11.1691 3.48216 10.9162 3.86153C10.6121 4.31773 10.0662 4.50084 9.3335 4.50084H6.66683C6.65159 4.50084 6.63575 4.50089 6.61938 4.50094C6.32406 4.50177 5.85218 4.50312 5.47281 4.2502C5.01661 3.94607 4.8335 3.40021 4.8335 2.66751C4.8335 1.93481 5.01661 1.38896 5.47281 1.08482C5.85218 0.831906 6.32406 0.833247 6.61938 0.834086ZM6.02751 1.91687C5.98372 1.94607 5.8335 2.06688 5.8335 2.66751C5.8335 3.26815 5.98372 3.38896 6.02751 3.41815C6.12711 3.48455 6.29032 3.50084 6.66683 3.50084H9.3335C9.93413 3.50084 10.0549 3.35062 10.0841 3.30683C10.1505 3.20723 10.1668 3.04402 10.1668 2.66751C10.1668 2.06688 10.0166 1.94607 9.97281 1.91687C9.87322 1.85047 9.71001 1.83418 9.3335 1.83418H6.66683C6.29032 1.83418 6.12711 1.85047 6.02751 1.91687Z" fill="#808080"/>
<path id="Vector (Stroke)_3" fill-rule="evenodd" clip-rule="evenodd" d="M5.8326 2.65467C5.84751 2.93041 5.63606 3.16602 5.36032 3.18092C4.28956 3.2388 3.62222 3.46379 3.20143 3.91928C2.77506 4.3808 2.5 5.18885 2.5 6.66832V10.6683C2.5 11.9928 2.67421 12.8224 3.12629 13.3391C3.56391 13.8392 4.37645 14.1683 6 14.1683H10C11.6236 14.1683 12.4361 13.8392 12.8737 13.3391C13.3258 12.8224 13.5 11.9928 13.5 10.6683V6.66832C13.5 5.18518 13.2248 4.37752 12.7988 3.91703C12.3783 3.46247 11.7113 3.23885 10.6397 3.18092C10.3639 3.16602 10.1525 2.93041 10.1674 2.65467C10.1823 2.37893 10.4179 2.16748 10.6937 2.18238C11.8421 2.24446 12.8417 2.49083 13.5329 3.23795C14.2185 3.97912 14.5 5.1048 14.5 6.66832V10.6683C14.5 12.0105 14.3409 13.1809 13.6263 13.9976C12.8972 14.8308 11.7098 15.1683 10 15.1683H6C4.29022 15.1683 3.10275 14.8308 2.37371 13.9976C1.65912 13.1809 1.5 12.0105 1.5 10.6683V6.66832C1.5 5.10779 1.7816 3.98251 2.4669 3.2407C3.15778 2.49285 4.15711 2.2445 5.30635 2.18238C5.58209 2.16748 5.8177 2.37893 5.8326 2.65467Z" fill="#808080"/>
</g>
</g>
</g>
</svg>
